<svg xmlns="http://www.w3.org/2000/svg" viewBox="0 0 51.82 51.99"><defs><style>.cls-1,.cls-2{fill-rule:evenodd;}.cls-2{fill:#fff;}</style></defs><title>h-logo-normal-colored-svg</title><g id="Слой_2" data-name="Слой 2"><g id="Слой_1-2" data-name="Слой 1"><path class="cls-1" d="M48.61,13.73a7.64,7.64,0,0,0,2.05-2.31,7.54,7.54,0,0,0,0-7.61,7.6,7.6,0,0,0-12.75-.66,25.87,25.87,0,0,0-34.4,10h0A25.89,25.89,0,0,0,25.93,52h0A25.85,25.85,0,0,0,48.61,13.73Z"/><path class="cls-2" d="M37.11,32.58h0a12.94,12.94,0,0,1-22.41,0h0A12.94,12.94,0,0,1,25.9,13.18h0A12.94,12.94,0,0,1,37.11,32.58Z"/><path class="cls-2" d="M47.6,10.57l-.06.07a4.61,4.61,0,0,1-7.47-.72h0a4.61,4.61,0,0,1,1.46-6.16l.08-.05.29-.17.2-.1.27-.11.28-.1.25-.07.36-.07.21,0a4.73,4.73,0,0,1,.6,0h0a4.55,4.55,0,0,1,3.29,1.38,4.7,4.7,0,0,1,1,1.45A4.64,4.64,0,0,1,48.63,7a4.55,4.55,0,0,1-.58,3A4.71,4.71,0,0,1,47.6,10.57Z"/></g></g></svg>