<svg xmlns="http://www.w3.org/2000/svg" viewBox="0 0 79.33 79.33"><defs><style>.cls-1{fill:#fff;}.cls-2{fill-rule:evenodd;}</style></defs><title>Ресурс 5</title><g id="Слой_2" data-name="Слой 2"><g id="Слой_1-2" data-name="Слой 1"><rect class="cls-1" width="79.33" height="79.33"/><path class="cls-2" d="M62.36,27.4a7.64,7.64,0,0,0,2.05-2.31,7.61,7.61,0,0,0-12.75-8.27,25.87,25.87,0,0,0-34.4,10h0A25.89,25.89,0,0,0,39.68,65.66h0A25.85,25.85,0,0,0,62.36,27.4ZM50.86,46.25h0a12.94,12.94,0,0,1-22.41,0h0a12.94,12.94,0,0,1,11.2-19.41h0A12.94,12.94,0,0,1,50.86,46.25Zm10.49-22-.06.07a4.61,4.61,0,0,1-7.47-.72h0a4.61,4.61,0,0,1,1.46-6.16l.08-.05.29-.17.2-.1.27-.11.28-.1.25-.07.36-.07.21,0a4.73,4.73,0,0,1,.6,0h0a4.55,4.55,0,0,1,3.29,1.38,4.7,4.7,0,0,1,1,1.45,4.64,4.64,0,0,1,.32,1.12,4.55,4.55,0,0,1-.58,3A4.71,4.71,0,0,1,61.35,24.24Z"/></g></g></svg>