<svg xmlns="http://www.w3.org/2000/svg" viewBox="0 0 114.66 22.08"><defs><style>.cls-1,.cls-2{fill:#fff;}.cls-1{fill-rule:evenodd;}</style></defs><title>logo-text-light-svg</title><g id="Слой_2" data-name="Слой 2"><g id="Слой_1-2" data-name="Слой 1"><path class="cls-1" d="M71.38,7.18a2.55,2.55,0,0,0,.68-.77,2.54,2.54,0,0,0-4.26-2.76A8.64,8.64,0,0,0,56.32,7h0a8.65,8.65,0,0,0,7.49,13h0A8.63,8.63,0,0,0,71.38,7.18Zm-3.84,6.3h0a4.32,4.32,0,0,1-7.48,0h0A4.32,4.32,0,0,1,63.8,7h0A4.32,4.32,0,0,1,67.54,13.47ZM71,6.12l0,0a1.54,1.54,0,0,1-2.49-.24h0A1.54,1.54,0,0,1,69,3.85l0,0,.1-.06.07,0,.09,0,.09,0,.08,0,.12,0h.27a1.52,1.52,0,0,1,1.1.46,1.57,1.57,0,0,1,.32.48,1.55,1.55,0,0,1,.11.38,1.52,1.52,0,0,1-.19,1A1.57,1.57,0,0,1,71,6.12Z"/><path class="cls-2" d="M.23,17.25v-2.1L1.7,14.8V2.46L0,2.11V0H5.24V6.79A4,4,0,0,1,6.61,5.52a3.78,3.78,0,0,1,1.87-.45A3.53,3.53,0,0,1,11.3,6.28,5.65,5.65,0,0,1,12.35,10V14.8l1.47.34v2.1H7.53v-2.1l1.26-.34V10A2.61,2.61,0,0,0,8.35,8.3a1.62,1.62,0,0,0-1.28-.49A2.38,2.38,0,0,0,6,8a2,2,0,0,0-.78.68V14.8l1.27.34v2.1Z"/><path class="cls-2" d="M18.26,22.08a6.28,6.28,0,0,1-1-.08,7.32,7.32,0,0,1-1-.22l.42-2.57.44.07.43,0A2.39,2.39,0,0,0,18.86,19a1.56,1.56,0,0,0,.71-.93l.19-.59L15.84,7.62,14.3,7.4V5.29h6.77V7.4l-1.47.22,1.74,5.06.13.37h.07l2.06-5.46-1.4-.19V5.29h6.22V7.4L27,7.58,22.5,19a6.56,6.56,0,0,1-.85,1.51,3.86,3.86,0,0,1-1.35,1.13A4.43,4.43,0,0,1,18.26,22.08Z"/><path class="cls-2" d="M34.34,17.48a4,4,0,0,1-2.43-.74,4.61,4.61,0,0,1-1.56-2.07,8.27,8.27,0,0,1-.54-3.12v-.23A9,9,0,0,1,30.35,8a5,5,0,0,1,1.56-2.19,3.79,3.79,0,0,1,2.39-.79A3.44,3.44,0,0,1,36,5.46a3.85,3.85,0,0,1,1.24,1.11V2.46l-1.7-.34V0h5.26V14.8l1.47.34v2.1H37.71l-.26-1.47A3.87,3.87,0,0,1,36.13,17,3.57,3.57,0,0,1,34.34,17.48Zm1.08-2.74a2.29,2.29,0,0,0,1-.24,2,2,0,0,0,.77-.69V8.87a2.21,2.21,0,0,0-.76-.79,2,2,0,0,0-1-.28,1.66,1.66,0,0,0-1.2.44,2.6,2.6,0,0,0-.67,1.23,7.23,7.23,0,0,0-.21,1.84v.23a4.89,4.89,0,0,0,.46,2.34A1.67,1.67,0,0,0,35.42,14.74Z"/><path class="cls-2" d="M44.13,17.25v-2.1l1.47-.34V7.74L43.92,7.4V5.29h5L49,6.76l0,.29a3.63,3.63,0,0,1,1-1.49,2.39,2.39,0,0,1,1.53-.49,4.35,4.35,0,0,1,.59,0,4.48,4.48,0,0,1,.65.13L52.49,8.5l-1.64-.08a2,2,0,0,0-1,.18,2.25,2.25,0,0,0-.7.63V14.8l1.47.34v2.1Z"/><path class="cls-2" d="M80,22.08a10.86,10.86,0,0,1-2.09-.23,8.15,8.15,0,0,1-2.05-.68l.61-2.49a9.53,9.53,0,0,0,1.7.53,7.82,7.82,0,0,0,1.62.19,2.26,2.26,0,0,0,1.82-.69,2.84,2.84,0,0,0,.59-1.9v-.67a3.71,3.71,0,0,1-1.21,1,3.45,3.45,0,0,1-1.58.35,4.24,4.24,0,0,1-2.5-.74,4.61,4.61,0,0,1-1.6-2.07,8.11,8.11,0,0,1-.55-3.12v-.23A9,9,0,0,1,75.29,8a4.93,4.93,0,0,1,1.57-2.19,3.89,3.89,0,0,1,2.44-.79,3.44,3.44,0,0,1,1.81.45,4,4,0,0,1,1.28,1.27l.23-1.5h3.12V16.84A5.33,5.33,0,0,1,85,19.6a4.72,4.72,0,0,1-2,1.83A6.71,6.71,0,0,1,80,22.08Zm.43-7.34a2.32,2.32,0,0,0,1-.22,1.83,1.83,0,0,0,.74-.65V8.78a2,2,0,0,0-.73-.72,2.06,2.06,0,0,0-1-.25,1.7,1.7,0,0,0-1.23.44,2.6,2.6,0,0,0-.68,1.23,7,7,0,0,0-.22,1.84v.23a4.79,4.79,0,0,0,.48,2.34A1.73,1.73,0,0,0,80.42,14.74Zm4.89-7-1.57-2.5h3.38V7.4Z"/><path class="cls-2" d="M94.41,17.48a5.92,5.92,0,0,1-3-.76,5.27,5.27,0,0,1-2-2.08,6.22,6.22,0,0,1-.71-3v-.42A7.44,7.44,0,0,1,89.3,8a5.1,5.1,0,0,1,1.88-2.18,5.24,5.24,0,0,1,2.94-.78,5.48,5.48,0,0,1,2.74.63,4.08,4.08,0,0,1,1.7,1.84,6.78,6.78,0,0,1,.58,2.95v1.88H92.33v.08a3,3,0,0,0,.39,1.2,2.22,2.22,0,0,0,.87.83,2.82,2.82,0,0,0,1.37.3,6,6,0,0,0,1.56-.2A7.35,7.35,0,0,0,98,14l.87,2.17a7,7,0,0,1-1.91,1A8,8,0,0,1,94.41,17.48Zm-2.06-7.39h3.52V9.81a3.53,3.53,0,0,0-.17-1.15,1.44,1.44,0,0,0-.53-.74,1.68,1.68,0,0,0-1-.25,1.58,1.58,0,0,0-1,.31,1.91,1.91,0,0,0-.6.85A5,5,0,0,0,92.31,10Z"/><path class="cls-2" d="M101.07,17.25v-2.1l1.47-.34V7.74l-1.69-.34V5.29h5L106,7a4.35,4.35,0,0,1,1.48-1.41,3.94,3.94,0,0,1,2-.5A3.42,3.42,0,0,1,112.2,6.2a5.41,5.41,0,0,1,1,3.59v5l1.47.34v2.1h-6.29v-2.1l1.26-.34v-5a2.18,2.18,0,0,0-.44-1.54,1.66,1.66,0,0,0-1.25-.45,2.23,2.23,0,0,0-1.07.24,2.21,2.21,0,0,0-.77.71v6l1.15.34v2.1Z"/></g></g></svg>